<?xml version="1.0" encoding="UTF-8"?>
<svg xmlns="http://www.w3.org/2000/svg" width="300" height="152" viewBox="0 0 300 152" fill="none">
  <path d="M0 113.733H9.93021L17.6596 138.937L25.3182 113.733H34.3388L41.8433 138.933L49.7268 113.733H59.662L46.8463 151.685H37.4467L29.8664 127.623L22.1333 151.685H12.6579L0 113.733Z" fill="var(--accent)"></path>
  <path d="M69.8855 136.151C70.5404 140.455 75.2762 143.446 81.3181 143.446C84.6733 143.446 87.8744 142.498 89.6949 140.966L94.9402 146.217C91.4434 149.719 86.198 151.692 80.1524 151.692C67.9183 151.685 59.5377 143.811 59.5377 132.285C59.5377 121.416 67.118 113.756 78.1144 113.756C89.1109 113.756 96.6936 121.562 96.6936 132.868C96.6932 133.966 96.6202 135.063 96.4749 136.151H69.8855ZM86.5671 129.002C86.6404 124.771 83.3014 121.988 78.7109 121.988C74.1205 121.988 70.6137 124.771 70.0308 129.002H86.5671Z" fill="var(--accent)"></path>
  <path d="M111.437 101.165V116.96C114.208 114.625 118.29 113.749 121.789 113.749C131.631 113.749 138.119 121.049 138.119 131.269C138.119 143.464 128.861 151.709 115.52 151.709C111.218 151.709 105.827 150.838 101.741 148.863V107.262L111.437 101.165ZM116.759 143.46C123.247 143.46 127.621 138.789 127.621 131.999C127.621 126.086 124.195 121.945 119.31 121.945C114.791 121.945 111.437 125.283 111.437 130.685V142.657C113.186 143.241 115.447 143.46 116.759 143.46Z" fill="var(--accent)"></path>
  <path d="M143.16 113.857V107.415L153.07 101.289V113.857H164.06L164.023 122.07L153.07 122.194V138.902C153.07 141.439 154.709 143.155 157.171 143.155C158.437 143.155 160.076 142.632 161.12 141.662L166.035 146.438C163.948 149.721 159.999 151.736 155.379 151.736C148.45 151.736 143.16 147.035 143.16 140.245V122.07" fill="var(--accent)"></path>
  <path d="M179.288 113.733H169.206V151.685H179.288V113.733Z" fill="var(--accent)"></path>
  <path d="M204.168 113.733C215.902 113.733 224.139 121.542 224.139 132.71C224.139 143.878 215.902 151.685 204.168 151.685C192.362 151.685 184.195 143.876 184.195 132.709C184.195 121.542 192.358 113.733 204.168 113.733ZM204.168 143.439C209.706 143.439 213.643 138.987 213.643 132.71C213.643 126.364 209.706 121.98 204.168 121.98C198.629 121.98 194.691 126.36 194.691 132.71C194.691 138.985 198.628 143.437 204.168 143.437V143.439Z" fill="var(--accent)"></path>
  <path d="M284.314 151.685C277.823 151.685 273.52 149.64 269.801 146.426L274.687 140.735C276.799 142.342 280.154 143.583 284.095 143.583C288.036 143.583 290.66 142.488 290.66 140.589C290.66 138.474 287.086 137.741 283.147 136.646C277.458 135.033 271.041 132.771 271.041 125.18C271.041 118.096 276.584 113.715 285.704 113.715C291.612 113.715 295.623 115.541 298.906 118.608L293.947 124.304C291.904 122.625 289.349 121.816 286.07 121.816C282.496 121.816 280.307 122.839 280.307 124.592C280.307 126.636 283.736 127.586 286.799 128.462C293.363 130.215 300 132.406 300 140C299.995 147.157 293.942 151.685 284.314 151.685Z" fill="var(--accent)"></path>
  <path d="M250.732 113.733C252.442 113.722 254.144 113.974 255.778 114.479C261.706 116.335 265.449 121.572 265.449 128.54V151.685H255.563V131.441C255.563 125.973 252.14 122.076 247.388 121.919C242.636 122.075 239.211 125.972 239.211 131.441V151.685H229.325V128.54C229.325 121.572 233.068 116.337 238.996 114.479C240.63 113.974 242.332 113.722 244.042 113.733" fill="var(--accent)"></path>
  <path d="M154.962 82.2801C157.693 79.5452 157.693 75.1111 154.962 72.3762C152.231 69.6413 147.803 69.6413 145.071 72.3762C142.34 75.1111 142.34 79.5452 145.071 82.2801C147.803 85.015 152.231 85.015 154.962 82.2801Z" fill="var(--secondary)"></path>
  <path d="M154.962 14.8558C157.694 12.1209 157.694 7.68674 154.962 4.95185C152.231 2.21696 147.803 2.21695 145.072 4.95185C142.34 7.68674 142.34 12.1209 145.072 14.8558C147.803 17.5907 152.231 17.5907 154.962 14.8558Z" fill="var(--secondary)"></path>
  <path fill-rule="evenodd" clip-rule="evenodd" d="M183.677 36.6559C181.919 36.6562 180.225 37.3195 178.933 38.5137C177.642 39.7079 176.846 41.3454 176.706 43.1003C176.692 43.2845 176.685 43.4736 176.685 43.659C176.685 43.8444 176.685 44.0074 176.703 44.1791C176.565 46.5976 175.542 48.8804 173.829 50.5914C172.117 52.3024 169.835 53.3216 167.419 53.4544C167.241 53.442 167.063 53.4345 166.881 53.4345H166.824C166.643 53.4345 166.464 53.442 166.286 53.4544C163.87 53.3216 161.588 52.3024 159.876 50.5914C158.163 48.8804 157.14 46.5976 157.002 44.1791C157.014 44.0074 157.021 43.8345 157.021 43.659C157.021 43.6329 157.021 43.6067 157.021 43.5806C157.021 43.5545 157.021 43.5396 157.021 43.5184C157.021 43.394 157.021 43.2695 157.009 43.1451C157.125 40.6187 158.207 38.2338 160.031 36.4844C161.855 34.7349 164.281 33.7551 166.807 33.7479V33.7416C168.166 33.7416 169.496 33.3449 170.634 32.6C171.772 31.855 172.668 30.7942 173.213 29.5472C173.759 28.3002 173.929 26.9211 173.704 25.5786C173.479 24.2361 172.868 22.9884 171.945 21.9882C171.023 20.988 169.83 20.2785 168.512 19.9466C167.193 19.6148 165.807 19.6749 164.522 20.1196C163.237 20.5643 162.109 21.3744 161.277 22.4507C160.445 23.527 159.944 24.8228 159.835 26.1798C159.821 26.3639 159.814 26.5531 159.814 26.7385C159.814 26.9239 159.814 27.0869 159.833 27.2586C159.695 29.676 158.673 31.9579 156.962 33.6688C155.251 35.3797 152.97 36.3996 150.556 36.5339C150.381 36.5215 150.206 36.514 150.028 36.514H150.001C149.823 36.514 149.648 36.5215 149.473 36.5339C147.058 36.3993 144.778 35.3793 143.067 33.6685C141.356 31.9577 140.334 29.6759 140.196 27.2586C140.208 27.0869 140.215 26.9139 140.215 26.7385C140.215 26.563 140.207 26.3652 140.193 26.1798C140.085 24.8228 139.583 23.527 138.751 22.4508C137.918 21.3746 136.79 20.5648 135.505 20.1203C134.22 19.6759 132.834 19.6161 131.515 19.9483C130.197 20.2805 129.004 20.9903 128.082 21.9908C127.16 22.9913 126.549 24.2392 126.325 25.5818C126.1 26.9244 126.271 28.3035 126.816 29.5503C127.362 30.7972 128.259 31.8578 129.397 32.6024C130.535 33.3471 131.865 33.7434 133.225 33.7429V33.7491C135.686 33.7566 138.056 34.6879 139.865 36.3592C141.675 38.0305 142.793 40.3203 142.999 42.7768C142.986 42.8838 142.975 42.992 142.966 43.1003C142.952 43.2845 142.945 43.4736 142.945 43.659C142.945 43.8444 142.945 44.0074 142.963 44.1791C142.825 46.5972 141.803 48.8797 140.091 50.5906C138.378 52.3015 136.097 53.321 133.682 53.4544C133.505 53.442 133.328 53.4345 133.148 53.4345H133.139C132.959 53.4345 132.781 53.442 132.604 53.4544C130.189 53.321 127.908 52.3015 126.196 50.5906C124.484 48.8797 123.461 46.5972 123.323 44.1791C123.335 44.0074 123.342 43.8345 123.342 43.659C123.342 43.4836 123.334 43.2857 123.32 43.1003C123.212 41.7434 122.711 40.4475 121.879 39.3712C121.046 38.2949 119.919 37.4848 118.634 37.0401C117.349 36.5954 115.962 36.5353 114.644 36.8672C113.326 37.199 112.132 37.9085 111.21 38.9087C110.288 39.9089 109.677 41.1566 109.452 42.4991C109.227 43.8416 109.397 45.2207 109.942 46.4677C110.488 47.7147 111.384 48.7756 112.522 49.5205C113.66 50.2654 114.99 50.6622 116.349 50.6621V50.6684C118.897 50.6753 121.342 51.6718 123.171 53.448C125 55.2242 126.069 57.6416 126.154 60.1913C126.154 60.2734 126.148 60.3555 126.148 60.4402C126.147 61.3598 126.328 62.2704 126.679 63.1201C127.031 63.9697 127.546 64.7417 128.195 65.3921C128.844 66.0424 129.615 66.5582 130.464 66.9102C131.312 67.2621 132.222 67.4433 133.14 67.4433H133.149C134.067 67.4433 134.977 67.2621 135.825 66.9102C136.673 66.5582 137.444 66.0424 138.094 65.3921C138.743 64.7417 139.258 63.9697 139.609 63.1201C139.961 62.2704 140.141 61.3598 140.141 60.4402C140.141 60.3568 140.141 60.2747 140.135 60.1913C140.22 57.642 141.289 55.2251 143.118 53.4492C144.946 51.6733 147.391 50.6769 149.939 50.6696V50.6634H150.024V50.6696C152.583 50.6768 155.039 51.6822 156.87 53.4724C158.701 55.2627 159.763 57.6969 159.831 60.2585V60.2684C159.831 60.3244 159.831 60.3817 159.831 60.4389C159.831 60.4962 159.831 60.5907 159.831 60.6666C159.89 62.4836 160.653 64.2064 161.957 65.4707C163.262 66.7351 165.006 67.4421 166.821 67.4421H166.879C168.694 67.4421 170.438 66.7351 171.743 65.4707C173.047 64.2064 173.81 62.4836 173.869 60.6666C173.869 60.5911 173.869 60.5152 173.869 60.4389C173.869 60.3817 173.869 60.3244 173.869 60.2684V60.2585C173.937 57.6964 174.999 55.2617 176.83 53.4712C178.661 51.6807 181.118 50.6752 183.677 50.6684V50.6621C185.532 50.6621 187.311 49.9243 188.622 48.611C189.934 47.2976 190.671 45.5164 190.671 43.659C190.671 41.8017 189.934 40.0204 188.622 38.707C187.311 37.3937 185.532 36.6559 183.677 36.6559Z" fill="var(--accent)"></path>
</svg>